<?xml version="1.0" encoding="UTF-8"?>
<svg version="1.1" xmlns="http://www.w3.org/2000/svg" width="300" height="109">
<path d="M0 0 C0 7.26 0 14.52 0 22 C-3.3 22.66 -6.6 23.32 -10 24 C-20.09764259 27.48753921 -25.31443067 33.62886133 -30 43 C-20.1 43 -10.2 43 0 43 C0 50.26 0 57.52 0 65 C-9.9 65 -19.8 65 -30 65 C-25.67437085 73.65125831 -21.90978945 80.02442939 -13 84 C-8.68404545 85.23737229 -4.41263563 86.12666586 0 87 C0 94.26 0 101.52 0 109 C-14.95596332 109 -27.65697314 104.15676104 -38.75 93.9375 C-48.97805689 83.03997029 -54.61016552 69.54882635 -54.4375 54.625 C-54.43065186 53.7081543 -54.42380371 52.79130859 -54.41674805 51.84667969 C-54.24703414 44.65894632 -53.1141828 38.53568628 -50 32 C-49.649375 31.21882813 -49.29875 30.43765625 -48.9375 29.6328125 C-41.49237901 14.69086828 -28.60995144 6.27735053 -13.4375 0.6875 C-10 0 -10 0 0 0 Z " fill="#166A38" transform="translate(54,0)"/>
<path d="M0 0 C17.82 0 35.64 0 54 0 C54 14.34707817 48.9343287 27.57141425 39.02734375 38.15234375 C29.79081619 46.57021954 17.75666433 54.17595818 4.8125 54.3125 C2 54 2 54 0 53 C1.28586827 50.2230075 2.708259 48.07086342 4.6875 45.75 C10.46553668 38.23997197 13.50945502 28.72636245 17 20 C11.39 19.34 5.78 18.68 0 18 C0 12.06 0 6.12 0 0 Z M37 4 C37 6.31 37 8.62 37 11 C37.33 11 37.66 11 38 11 C38 8.69 38 6.38 38 4 C37.67 4 37.34 4 37 4 Z M18 8 C18 9.98 18 11.96 18 14 C18.33 14 18.66 14 19 14 C19 12.02 19 10.04 19 8 C18.67 8 18.34 8 18 8 Z M36 11 C37 15 37 15 37 15 Z M17 14 C18 18 18 18 18 18 Z M35 15 C36 18 36 18 36 18 Z M34 19 C35 21 35 21 35 21 Z M33 21 C34 23 34 23 34 23 Z M32 23 C31.67 23.66 31.34 24.32 31 25 C31.99 24.67 32.98 24.34 34 24 C33.34 23.67 32.68 23.34 32 23 Z M30 27 C31 29 31 29 31 29 Z M29 29 C30 31 30 31 30 31 Z M27 32 C27 35 27 35 27 35 Z M23 37 C21.68 38.65 20.36 40.3 19 42 C20.32 41.34 21.64 40.68 23 40 C23 39.01 23 38.02 23 37 Z M18 42 C17.01 42.495 17.01 42.495 16 43 C16 43.66 16 44.32 16 45 C16.99 45 17.98 45 19 45 C18.67 44.01 18.34 43.02 18 42 Z M14 45 C13.67 45.66 13.34 46.32 13 47 C13.99 46.67 14.98 46.34 16 46 C15.34 45.67 14.68 45.34 14 45 Z " fill="#166B38" transform="translate(56,55)"/>
<path d="M0 0 C11.26726946 5.53303411 20.25356734 16.58967267 24.625 28.2890625 C26.67368516 34.90516263 27.625 40.28286219 27.625 47.2890625 C9.805 47.2890625 -8.015 47.2890625 -26.375 47.2890625 C-26.375 41.3490625 -26.375 35.4090625 -26.375 29.2890625 C-24.29251953 29.01642578 -24.29251953 29.01642578 -22.16796875 28.73828125 C-8.09253256 26.87677098 -8.09253256 26.87677098 5.625 23.2890625 C2.89036263 16.86860956 -0.68330474 12.48520747 -5.546875 7.48828125 C-7.375 5.2890625 -7.375 5.2890625 -7.375 2.2890625 C-3.3882489 -1.01424556 -3.3882489 -1.01424556 0 0 Z M6.625 24.2890625 C7.625 26.2890625 7.625 26.2890625 7.625 26.2890625 Z M7.625 26.2890625 C8.625 29.2890625 8.625 29.2890625 8.625 29.2890625 Z M-9.375 29.2890625 C-8.375 32.2890625 -8.375 32.2890625 -8.375 32.2890625 Z M8.625 29.2890625 C9.625 32.2890625 9.625 32.2890625 9.625 32.2890625 Z M9.625 32.2890625 C10.625 36.2890625 10.625 36.2890625 10.625 36.2890625 Z M-8.375 33.2890625 C-8.375 35.2690625 -8.375 37.2490625 -8.375 39.2890625 C-8.045 39.2890625 -7.715 39.2890625 -7.375 39.2890625 C-7.375 37.3090625 -7.375 35.3290625 -7.375 33.2890625 C-7.705 33.2890625 -8.035 33.2890625 -8.375 33.2890625 Z M10.625 36.2890625 C10.625 38.2690625 10.625 40.2490625 10.625 42.2890625 C10.955 42.2890625 11.285 42.2890625 11.625 42.2890625 C11.625 40.3090625 11.625 38.3290625 11.625 36.2890625 C11.295 36.2890625 10.965 36.2890625 10.625 36.2890625 Z " fill="#166B38" transform="translate(82.375,6.7109375)"/>
<path d="M0 0 C2.64 0 5.28 0 8 0 C8.44653931 1.30988892 8.44653931 1.30988892 8.90209961 2.64624023 C10.00490624 5.87670347 11.11031797 9.10625018 12.2175293 12.33520508 C12.69677318 13.73458422 13.1749668 15.13432349 13.65209961 16.53442383 C14.33693985 18.54343077 15.02551057 20.5511247 15.71484375 22.55859375 C16.12855225 23.76829834 16.54226074 24.97800293 16.96850586 26.22436523 C17.73313712 28.87196983 17.73313712 28.87196983 19 30 C19.29769287 29.12674072 19.59538574 28.25348145 19.90209961 27.35375977 C21.00490624 24.12329653 22.11031797 20.89374982 23.2175293 17.66479492 C23.69677318 16.26541578 24.1749668 14.86567651 24.65209961 13.46557617 C25.33693985 11.45656923 26.02551057 9.4488753 26.71484375 7.44140625 C27.12855225 6.23170166 27.54226074 5.02199707 27.96850586 3.77563477 C29 1 29 1 30 0 C32.67058851 -0.14115161 35.32432238 -0.04247107 38 0 C38.719427 4.83699859 39.43122465 9.67503857 40.13623047 14.51416016 C40.37669165 16.15736537 40.61916975 17.80027683 40.86376953 19.44287109 C41.21668398 21.81532049 41.56213028 24.18876092 41.90625 26.5625 C42.0156189 27.28679199 42.12498779 28.01108398 42.2376709 28.75732422 C42.92317123 33.55168871 43.09534715 38.15636466 43 43 C40.36 43 37.72 43 35 43 C34.91435791 42.37955811 34.82871582 41.75911621 34.74047852 41.11987305 C34.3507567 38.30866566 33.9566787 35.49808577 33.5625 32.6875 C33.42779297 31.71103516 33.29308594 30.73457031 33.15429688 29.72851562 C33.02216797 28.79072266 32.89003906 27.85292969 32.75390625 26.88671875 C32.63345947 26.02264404 32.5130127 25.15856934 32.38891602 24.26831055 C32.03222925 21.84441874 32.03222925 21.84441874 31 19 C30.6443396 20.0372522 30.6443396 20.0372522 30.28149414 21.09545898 C29.21150457 24.21051561 28.13706435 27.32401869 27.0625 30.4375 C26.68931641 31.52611328 26.31613281 32.61472656 25.93164062 33.73632812 C25.57392578 34.77080078 25.21621094 35.80527344 24.84765625 36.87109375 C24.51773682 37.82943115 24.18781738 38.78776855 23.84790039 39.77514648 C23 42 23 42 22 43 C19.66702567 43.04092937 17.33294775 43.04241723 15 43 C11.93137518 36.40813928 9.4205521 29.71094974 7.05078125 22.84375 C6.27559176 20.13619465 6.27559176 20.13619465 5 19 C4.87153687 20.0372522 4.87153687 20.0372522 4.74047852 21.09545898 C4.35223699 24.21004211 3.95745795 27.32376177 3.5625 30.4375 C3.42779297 31.52611328 3.29308594 32.61472656 3.15429688 33.73632812 C3.02216797 34.77080078 2.89003906 35.80527344 2.75390625 36.87109375 C2.63345947 37.82943115 2.5130127 38.78776855 2.38891602 39.77514648 C2 42 2 42 1 43 C-1.33297433 43.04092937 -3.66705225 43.04241723 -6 43 C-5.35493616 33.90332674 -4.26129785 24.9051614 -3 15.875 C-2.82010703 14.54950704 -2.64041851 13.22398631 -2.4609375 11.8984375 C-2.28820312 10.650625 -2.11546875 9.4028125 -1.9375 8.1171875 C-1.70353516 6.42505127 -1.70353516 6.42505127 -1.46484375 4.69873047 C-1 2 -1 2 0 0 Z " fill="#166B38" transform="translate(257,33)"/>
<path d="M0 0 C4.72693031 4.13466718 6.93144273 9.28488558 7.65234375 15.4453125 C7.85805825 22.62246289 6.22868956 27.89199399 1.65234375 33.4453125 C-4.13659788 38.94480705 -9.56399204 39.92182288 -17.34375 39.75 C-22.7669353 39.19992399 -26.43501696 37.52536005 -30.1328125 33.50390625 C-35.80845424 26.21815338 -36.23824405 19.5738375 -35.34765625 10.4453125 C-33.30448491 4.75613712 -29.26517633 0.78922615 -24.34765625 -2.5546875 C-16.21807228 -6.06156686 -7.18162433 -5.14022192 0 0 Z M-24.34765625 6.4453125 C-27.27422983 11.35440367 -28.15104809 15.85458569 -27.34765625 21.4453125 C-25.73690131 26.53190706 -24.13609605 29.89827005 -19.34765625 32.4453125 C-15.21086577 33.17858974 -11.27027989 33.40465845 -7.4375 31.4921875 C-4.18133347 28.9640582 -2.25371019 26.43194984 -1.34765625 22.4453125 C-0.55998342 16.03316336 -1.36949447 10.67585854 -5.34765625 5.4453125 C-11.88244835 0.89937017 -18.37858973 1.3354298 -24.34765625 6.4453125 Z " fill="#166B38" transform="translate(239.34765625,36.5546875)"/>
<path d="M0 0 C7.92 0 15.84 0 24 0 C24 2.31 24 4.62 24 7 C18.72 7 13.44 7 8 7 C8 10.3 8 13.6 8 17 C12.62 17 17.24 17 22 17 C22 19.31 22 21.62 22 24 C17.38 24 12.76 24 8 24 C8 27.96 8 31.92 8 36 C13.28 36 18.56 36 24 36 C24 38.31 24 40.62 24 43 C16.08 43 8.16 43 0 43 C0 28.81 0 14.62 0 0 Z " fill="#166B38" transform="translate(137,33)"/>
<path d="M0 0 C-0.69378511 3.26011642 -1.45893991 4.79038253 -4 7 C-4.825 6.649375 -5.65 6.29875 -6.5 5.9375 C-10.66626035 4.82153741 -13.87952064 4.66889864 -18 6 C-21.1786241 8.5699514 -22.70728109 10.12184327 -24 14 C-24.53550042 19.98318742 -24.49180719 24.88699662 -21 30 C-17.19207028 33.46926352 -14.37803875 33.37748558 -9.41796875 33.23828125 C-6.66265756 32.96675624 -4.44497909 32.30398885 -2 31 C-1.01 32.32 -0.02 33.64 1 35 C0.01125131 37.69658735 -0.58160901 38.78856313 -3.1875 40.10546875 C-8.95448791 41.93969129 -15.73096684 42.21480818 -21.44921875 40.08984375 C-27.00573583 36.79826887 -30.98903743 32.6477591 -33.3125 26.5625 C-34.91479348 18.25970651 -33.70753705 11.35139882 -29.25 4.1875 C-20.59905958 -4.22313652 -10.66650431 -4.49115971 0 0 Z " fill="#166B38" transform="translate(200,35)"/>
<path d="M0 0 C8.09681414 2.13074056 15.48157826 6.73584559 21 13 C21.57621094 13.63164062 22.15242188 14.26328125 22.74609375 14.9140625 C31 24.07744283 31 24.07744283 31 29 C29.44240657 29.53532823 27.87861955 30.05265378 26.3125 30.5625 C25.44238281 30.85253906 24.57226562 31.14257812 23.67578125 31.44140625 C20.55985266 32.09188477 18.93907336 32.27636963 16 31 C14.77840836 28.6488965 13.93870178 26.61354358 13.125 24.125 C10.40378001 16.59097684 7.10987467 9.02523194 1.29296875 3.328125 C0 2 0 2 0 0 Z " fill="#166B38" transform="translate(56,1)"/>
<path d="M0 0 C3.48192783 6.56967515 6.59014224 12.66873967 8 20 C2.45847359 20.94323854 -2.22209771 21 -8 21 C-8 14.4 -8 7.8 -8 1 C-4 0 -4 0 0 0 Z " fill="#166B38" transform="translate(64,14)"/>
<path d="M0 0 C11.25 0 11.25 0 16 1 C14.12849037 8.15129696 11.50213658 14.49405457 8 21 C5.36 20.67 2.72 20.34 0 20 C0 13.4 0 6.8 0 0 Z " fill="#176B38" transform="translate(56,74)"/>
<path d="M0 0 C6.95040259 -0.64654908 13.63288164 1.24091538 20 4 C20.33 4.99 20.66 5.98 21 7 C18.78675527 8.39352446 17.38828938 9.01078582 14.75 8.9375 C9.29428738 7.07759797 4.49648168 3.55971467 0 0 Z " fill="#166B38" transform="translate(58,0)"/>
<path d="M0 0 C0.66 0 1.32 0 2 0 C3.2890625 1.75 3.2890625 1.75 4.625 4 C5.07101563 4.7425 5.51703125 5.485 5.9765625 6.25 C6.31429687 6.8275 6.65203125 7.405 7 8 C4.69 8.33 2.38 8.66 0 9 C0 6.03 0 3.06 0 0 Z " fill="#166C38" transform="translate(56,5)"/>
<path d="M0 0 C1.65 0 3.3 0 5 0 C5 4.26649636 4.43160605 5.63316085 2 9 C1.34 9 0.68 9 0 9 C0 6.03 0 3.06 0 0 Z " fill="#166C39" transform="translate(56,95)"/>
</svg>
